<svg width="512" height="512" viewBox="0 0 512 512" fill="none" xmlns="http://www.w3.org/2000/svg">
  <defs>
    <linearGradient id="bg" x1="70" y1="54" x2="444" y2="452" gradientUnits="userSpaceOnUse">
      <stop stop-color="#0F172A"/>
      <stop offset="0.52" stop-color="#1F1B4D"/>
      <stop offset="1" stop-color="#0E2234"/>
    </linearGradient>
    <linearGradient id="aura" x1="82" y1="68" x2="432" y2="428" gradientUnits="userSpaceOnUse">
      <stop stop-color="#31D4E2"/>
      <stop offset="0.48" stop-color="#7C3AED"/>
      <stop offset="1" stop-color="#D16CFF"/>
    </linearGradient>
    <linearGradient id="screen" x1="148" y1="128" x2="344" y2="350" gradientUnits="userSpaceOnUse">
      <stop stop-color="#05070F"/>
      <stop offset="1" stop-color="#111827"/>
    </linearGradient>
  </defs>

  <rect x="24" y="24" width="464" height="464" rx="120" fill="url(#bg)"/>
  <rect x="96" y="88" width="320" height="270" rx="120" fill="url(#aura)" opacity="0.95"/>
  <rect x="116" y="108" width="280" height="230" rx="102" fill="#151A25" stroke="#242C3D" stroke-width="18"/>
  <rect x="136" y="128" width="240" height="190" rx="80" fill="url(#screen)"/>

  <path d="M166 126C190 112 220 104 256 104C292 104 323 111 348 126" stroke="rgba(255,255,255,0.18)" stroke-width="12" stroke-linecap="round"/>
  <rect x="180" y="170" width="76" height="42" rx="21" fill="#F8FAFC"/>
  <rect x="268" y="170" width="76" height="42" rx="21" fill="#F8FAFC"/>

  <path d="M154 92C154 73.222 169.222 58 188 58C206.778 58 222 73.222 222 92V108H154V92Z" fill="#F8FAFC" opacity="0.92"/>
  <path d="M290 92C290 73.222 305.222 58 324 58C342.778 58 358 73.222 358 92V108H290V92Z" fill="#F8FAFC" opacity="0.92"/>

  <circle cx="396" cy="228" r="30" fill="#171C29" stroke="#2B3448" stroke-width="12"/>
  <path d="M382 228H410" stroke="#F8FAFC" stroke-width="10" stroke-linecap="round"/>
  <path d="M396 214V242" stroke="#F8FAFC" stroke-width="10" stroke-linecap="round"/>
</svg>